<svg xmlns="http://www.w3.org/2000/svg" viewBox="0 8.890000343322754 225.50999450683594 109.8570327758789" data-asc="0.927734375" width="225.50999450683594" height="109.8570327758789"><defs/><g fill="#63452c"><g transform="translate(0, 0)"><path d="M25.56 25.85L25.56 31.79Q25.56 35.55 24.65 38.37Q23.73 41.19 22.06 43.08Q20.39 44.97 18.03 45.92Q15.67 46.88 12.82 46.88Q9.96 46.88 7.60 45.92Q5.25 44.97 3.55 43.08Q1.86 41.19 0.93 38.37Q0 35.55 0 31.79L0 25.85Q0 22.00 0.90 19.10Q1.81 16.21 3.52 14.27Q5.22 12.33 7.57 11.34Q9.91 10.35 12.77 10.35Q15.63 10.35 17.97 11.34Q20.31 12.33 22.02 14.27Q23.73 16.21 24.65 19.10Q25.56 22.00 25.56 25.85M18.46 31.79L18.46 25.81Q18.46 23.27 18.09 21.47Q17.72 19.68 16.99 18.53Q16.26 17.38 15.21 16.85Q14.16 16.31 12.77 16.31Q11.38 16.31 10.31 16.85Q9.25 17.38 8.53 18.53Q7.81 19.68 7.46 21.47Q7.10 23.27 7.10 25.81L7.10 31.79Q7.10 34.23 7.47 35.96Q7.84 37.70 8.57 38.79Q9.30 39.89 10.36 40.42Q11.43 40.94 12.82 40.94Q14.18 40.94 15.25 40.42Q16.31 39.89 17.02 38.79Q17.72 37.70 18.09 35.96Q18.46 34.23 18.46 31.79ZM37.13 25.61L37.13 46.39L30.27 46.39L30.27 19.97L36.67 19.97L37.13 25.61M36.11 32.28L34.28 32.32Q34.23 29.35 34.85 26.98Q35.47 24.61 36.63 22.94Q37.79 21.26 39.40 20.37Q41.02 19.48 43.04 19.48Q44.58 19.48 45.86 20.02Q47.14 20.56 48.07 21.73Q49.00 22.90 49.51 24.83Q50.02 26.76 50.02 29.59L50.02 46.39L43.16 46.39L43.16 29.54Q43.16 27.83 42.82 26.89Q42.48 25.95 41.81 25.57Q41.14 25.20 40.09 25.20Q39.11 25.20 38.35 25.73Q37.60 26.27 37.10 27.23Q36.60 28.20 36.34 29.49Q36.08 30.79 36.11 32.28ZM62.21 8.89L62.21 46.39L55.35 46.39L55.35 8.89L62.21 8.89ZM74.80 19.97L74.80 46.39L67.94 46.39L67.94 19.97L74.80 19.97M67.63 13.11Q67.63 11.52 68.64 10.50Q69.65 9.47 71.39 9.47Q73.10 9.47 74.10 10.50Q75.10 11.52 75.10 13.11Q75.10 14.70 74.10 15.73Q73.10 16.77 71.39 16.77Q69.65 16.77 68.64 15.73Q67.63 14.70 67.63 13.11ZM86.94 25.61L86.94 46.39L80.08 46.39L80.08 19.97L86.47 19.97L86.94 25.61M85.91 32.28L84.08 32.32Q84.03 29.35 84.66 26.98Q85.28 24.61 86.44 22.94Q87.60 21.26 89.21 20.37Q90.82 19.48 92.85 19.48Q94.38 19.48 95.67 20.02Q96.95 20.56 97.88 21.73Q98.80 22.90 99.32 24.83Q99.83 26.76 99.83 29.59L99.83 46.39L92.97 46.39L92.97 29.54Q92.97 27.83 92.63 26.89Q92.29 25.95 91.61 25.57Q90.94 25.20 89.89 25.20Q88.92 25.20 88.16 25.73Q87.40 26.27 86.90 27.23Q86.40 28.20 86.15 29.49Q85.89 30.79 85.91 32.28ZM115.48 46.88Q112.77 46.88 110.68 46.04Q108.59 45.21 107.15 43.64Q105.71 42.07 104.96 39.82Q104.20 37.57 104.20 34.69L104.20 32.52Q104.20 29.30 104.93 26.87Q105.66 24.44 107.01 22.78Q108.35 21.12 110.31 20.30Q112.28 19.48 114.77 19.48Q117.26 19.48 119.15 20.30Q121.04 21.12 122.29 22.74Q123.54 24.37 124.17 26.76Q124.80 29.15 124.80 32.32L124.80 35.45L107.10 35.45L107.10 30.64L118.09 30.64L118.09 30.03Q118.09 28.42 117.75 27.33Q117.41 26.25 116.67 25.71Q115.94 25.17 114.72 25.17Q113.70 25.17 112.99 25.59Q112.28 26.00 111.87 26.88Q111.45 27.76 111.25 29.16Q111.06 30.57 111.06 32.52L111.06 34.69Q111.06 36.52 111.38 37.76Q111.69 38.99 112.32 39.76Q112.94 40.53 113.84 40.86Q114.75 41.19 115.94 41.19Q117.75 41.19 119.20 40.54Q120.65 39.89 121.68 38.77L124.41 42.92Q123.71 43.85 122.46 44.78Q121.22 45.70 119.48 46.29Q117.75 46.88 115.48 46.88ZM152.32 35.42L152.32 10.84L159.45 10.84L159.45 35.42Q159.45 38.99 158.09 41.56Q156.74 44.14 154.42 45.51Q152.10 46.88 149.19 46.88Q146.22 46.88 143.88 45.69Q141.55 44.51 140.21 42.07Q138.87 39.62 138.87 35.89L146.04 35.89Q146.04 37.79 146.44 38.89Q146.83 39.99 147.55 40.48Q148.27 40.97 149.19 40.97Q150.20 40.97 150.89 40.31Q151.59 39.65 151.95 38.42Q152.32 37.18 152.32 35.42ZM164.01 34.08L164.01 32.30Q164.01 29.20 164.76 26.81Q165.50 24.41 166.89 22.79Q168.29 21.17 170.25 20.32Q172.22 19.48 174.66 19.48Q177.12 19.48 179.09 20.32Q181.05 21.17 182.46 22.79Q183.86 24.41 184.62 26.81Q185.38 29.20 185.38 32.30L185.38 34.08Q185.38 37.16 184.62 39.55Q183.86 41.94 182.46 43.58Q181.05 45.21 179.10 46.04Q177.15 46.88 174.71 46.88Q172.27 46.88 170.30 46.04Q168.33 45.21 166.92 43.58Q165.50 41.94 164.76 39.55Q164.01 37.16 164.01 34.08M170.85 32.30L170.85 34.08Q170.85 35.91 171.11 37.26Q171.36 38.60 171.86 39.48Q172.36 40.36 173.07 40.77Q173.78 41.19 174.71 41.19Q175.63 41.19 176.37 40.77Q177.10 40.36 177.58 39.48Q178.05 38.60 178.28 37.26Q178.52 35.91 178.52 34.08L178.52 32.30Q178.52 30.52 178.25 29.16Q177.98 27.81 177.49 26.94Q177.00 26.07 176.28 25.62Q175.56 25.17 174.66 25.17Q173.75 25.17 173.06 25.62Q172.36 26.07 171.86 26.94Q171.36 27.81 171.11 29.16Q170.85 30.52 170.85 32.30ZM189.70 8.89L196.51 8.89L196.51 40.26L196.02 46.39L189.70 46.39L189.70 8.89M210.23 32.30L210.23 34.03Q210.23 37.26 209.73 39.65Q209.23 42.04 208.19 43.65Q207.15 45.26 205.54 46.07Q203.93 46.88 201.73 46.88Q199.76 46.88 198.34 45.94Q196.92 45.00 195.96 43.32Q195.00 41.65 194.40 39.39Q193.80 37.13 193.53 34.45L193.53 31.88Q193.77 29.25 194.37 26.98Q194.97 24.71 195.92 23.03Q196.88 21.36 198.30 20.42Q199.73 19.48 201.68 19.48Q203.93 19.48 205.54 20.30Q207.15 21.12 208.19 22.73Q209.23 24.34 209.73 26.75Q210.23 29.15 210.23 32.30M203.42 34.03L203.42 32.30Q203.42 30.47 203.27 29.15Q203.13 27.83 202.73 26.95Q202.34 26.07 201.62 25.63Q200.90 25.20 199.73 25.20Q198.68 25.20 197.97 25.60Q197.27 26.00 196.77 26.77Q196.26 27.54 196.03 28.58Q195.80 29.61 195.78 30.86L195.78 35.47Q195.80 37.16 196.19 38.45Q196.58 39.75 197.45 40.45Q198.32 41.16 199.78 41.16Q200.93 41.16 201.64 40.77Q202.34 40.38 202.75 39.53Q203.15 38.67 203.28 37.32Q203.42 35.96 203.42 34.03Z"/></g><g transform="translate(0, 62.20703125)"><path d="M15.19 17.19L7.54 46.39L0 46.39L11.11 10.84L15.82 10.84L15.19 17.19M21.22 46.39L13.53 17.19L12.82 10.84L17.60 10.84L28.81 46.39L21.22 46.39M21.48 33.13L21.48 39.06L5.44 39.06L5.44 33.13L21.48 33.13ZM38.67 25.05L38.67 56.54L31.86 56.54L31.86 19.97L38.16 19.97L38.67 25.05M52.39 32.28L52.39 34.03Q52.39 37.13 51.86 39.51Q51.32 41.89 50.26 43.54Q49.19 45.19 47.61 46.03Q46.02 46.88 43.90 46.88Q41.92 46.88 40.49 45.94Q39.06 45.00 38.09 43.33Q37.11 41.67 36.52 39.45Q35.94 37.23 35.62 34.69L35.62 31.96Q35.91 29.25 36.47 26.97Q37.04 24.68 38.02 23.00Q39.01 21.31 40.44 20.40Q41.87 19.48 43.85 19.48Q46.00 19.48 47.60 20.26Q49.19 21.04 50.26 22.62Q51.32 24.19 51.86 26.61Q52.39 29.03 52.39 32.28M45.56 34.03L45.56 32.28Q45.56 30.37 45.35 29.03Q45.14 27.69 44.70 26.83Q44.26 25.98 43.55 25.59Q42.85 25.20 41.82 25.20Q40.82 25.20 40.08 25.59Q39.33 25.98 38.87 26.72Q38.40 27.47 38.16 28.53Q37.92 29.59 37.89 30.93L37.89 35.72Q37.94 37.30 38.32 38.53Q38.70 39.75 39.55 40.47Q40.41 41.19 41.87 41.19Q42.92 41.19 43.62 40.75Q44.31 40.31 44.75 39.43Q45.19 38.55 45.37 37.21Q45.56 35.86 45.56 34.03ZM63.43 25.05L63.43 56.54L56.62 56.54L56.62 19.97L62.92 19.97L63.43 25.05M77.15 32.28L77.15 34.03Q77.15 37.13 76.61 39.51Q76.07 41.89 75.01 43.54Q73.95 45.19 72.36 46.03Q70.78 46.88 68.65 46.88Q66.67 46.88 65.25 45.94Q63.82 45.00 62.84 43.33Q61.87 41.67 61.28 39.45Q60.69 37.23 60.38 34.69L60.38 31.96Q60.67 29.25 61.23 26.97Q61.79 24.68 62.78 23.00Q63.77 21.31 65.20 20.40Q66.63 19.48 68.60 19.48Q70.75 19.48 72.35 20.26Q73.95 21.04 75.01 22.62Q76.07 24.19 76.61 26.61Q77.15 29.03 77.15 32.28M70.31 34.03L70.31 32.28Q70.31 30.37 70.10 29.03Q69.90 27.69 69.46 26.83Q69.02 25.98 68.31 25.59Q67.60 25.20 66.58 25.20Q65.58 25.20 64.83 25.59Q64.09 25.98 63.62 26.72Q63.16 27.47 62.92 28.53Q62.67 29.59 62.65 30.93L62.65 35.72Q62.70 37.30 63.07 38.53Q63.45 39.75 64.31 40.47Q65.16 41.19 66.63 41.19Q67.68 41.19 68.37 40.75Q69.07 40.31 69.51 39.43Q69.95 38.55 70.13 37.21Q70.31 35.86 70.31 34.03ZM88.53 8.89L88.53 46.39L81.67 46.39L81.67 8.89L88.53 8.89ZM101.12 19.97L101.12 46.39L94.26 46.39L94.26 19.97L101.12 19.97M93.95 13.11Q93.95 11.52 94.96 10.50Q95.97 9.47 97.71 9.47Q99.41 9.47 100.42 10.50Q101.42 11.52 101.42 13.11Q101.42 14.70 100.42 15.73Q99.41 16.77 97.71 16.77Q95.97 16.77 94.96 15.73Q93.95 14.70 93.95 13.11ZM116.09 41.19Q117.04 41.19 117.74 40.80Q118.43 40.41 118.80 39.53Q119.17 38.65 119.19 37.26L125.61 37.26Q125.61 40.23 124.35 42.40Q123.10 44.56 120.98 45.72Q118.87 46.88 116.21 46.88Q113.55 46.88 111.57 46.02Q109.59 45.17 108.31 43.53Q107.03 41.89 106.38 39.54Q105.74 37.18 105.74 34.13L105.74 32.20Q105.74 29.20 106.38 26.83Q107.03 24.46 108.31 22.83Q109.59 21.19 111.56 20.34Q113.53 19.48 116.19 19.48Q119.04 19.48 121.14 20.67Q123.24 21.85 124.43 24.15Q125.61 26.44 125.61 29.81L119.19 29.81Q119.17 28.30 118.84 27.28Q118.51 26.27 117.83 25.72Q117.16 25.17 116.06 25.17Q114.92 25.17 114.22 25.65Q113.53 26.12 113.17 27.01Q112.82 27.91 112.70 29.22Q112.57 30.54 112.57 32.20L112.57 34.13Q112.57 35.91 112.68 37.22Q112.79 38.53 113.15 39.42Q113.50 40.31 114.20 40.75Q114.89 41.19 116.09 41.19ZM141.19 40.31L141.19 28.10Q141.19 26.90 140.91 26.20Q140.63 25.49 140.08 25.16Q139.53 24.83 138.75 24.83Q137.87 24.83 137.28 25.20Q136.69 25.56 136.41 26.25Q136.13 26.93 136.13 27.88L129.27 27.88Q129.27 26.17 129.93 24.65Q130.59 23.12 131.87 21.96Q133.15 20.80 134.94 20.14Q136.72 19.48 138.94 19.48Q141.58 19.48 143.63 20.37Q145.68 21.26 146.88 23.19Q148.07 25.12 148.07 28.20L148.07 39.97Q148.07 42.19 148.30 43.58Q148.54 44.97 149.00 45.97L149.00 46.39L142.11 46.39Q141.65 45.29 141.42 43.64Q141.19 41.99 141.19 40.31M142.02 30.25L142.04 34.35L139.53 34.35Q138.55 34.35 137.83 34.67Q137.11 34.99 136.62 35.56Q136.13 36.13 135.90 36.89Q135.67 37.65 135.67 38.50Q135.67 39.45 135.94 40.11Q136.21 40.77 136.74 41.11Q137.28 41.46 138.01 41.46Q139.14 41.46 139.97 40.99Q140.80 40.53 141.20 39.87Q141.60 39.21 141.46 38.65L143.02 41.31Q142.72 42.21 142.22 43.19Q141.72 44.17 140.97 45.00Q140.21 45.83 139.10 46.35Q137.99 46.88 136.47 46.88Q134.35 46.88 132.59 45.90Q130.83 44.92 129.82 43.16Q128.81 41.41 128.81 38.99Q128.81 36.99 129.46 35.36Q130.10 33.74 131.40 32.60Q132.69 31.47 134.67 30.86Q136.65 30.25 139.31 30.25L142.02 30.25ZM164.62 19.97L164.62 25.12L151.15 25.12L151.15 19.97L164.62 19.97M154.25 13.45L161.06 13.45L161.06 38.33Q161.06 39.40 161.28 40.00Q161.50 40.60 161.95 40.83Q162.40 41.06 163.13 41.06Q163.67 41.06 164.11 41.00Q164.55 40.94 164.77 40.87L164.77 46.22Q163.96 46.53 163.07 46.70Q162.18 46.88 160.96 46.88Q158.91 46.88 157.41 46.11Q155.91 45.34 155.08 43.60Q154.25 41.87 154.25 39.06L154.25 13.45ZM175.61 19.97L175.61 46.39L168.75 46.39L168.75 19.97L175.61 19.97M168.43 13.11Q168.43 11.52 169.45 10.50Q170.46 9.47 172.19 9.47Q173.90 9.47 174.90 10.50Q175.90 11.52 175.90 13.11Q175.90 14.70 174.90 15.73Q173.90 16.77 172.19 16.77Q170.46 16.77 169.45 15.73Q168.43 14.70 168.43 13.11ZM180.25 34.08L180.25 32.30Q180.25 29.20 180.99 26.81Q181.74 24.41 183.13 22.79Q184.52 21.17 186.49 20.32Q188.45 19.48 190.89 19.48Q193.36 19.48 195.32 20.32Q197.29 21.17 198.69 22.79Q200.10 24.41 200.85 26.81Q201.61 29.20 201.61 32.30L201.61 34.08Q201.61 37.16 200.85 39.55Q200.10 41.94 198.69 43.58Q197.29 45.21 195.34 46.04Q193.38 46.88 190.94 46.88Q188.50 46.88 186.54 46.04Q184.57 45.21 183.15 43.58Q181.74 41.94 180.99 39.55Q180.25 37.16 180.25 34.08M187.08 32.30L187.08 34.08Q187.08 35.91 187.34 37.26Q187.60 38.60 188.10 39.48Q188.60 40.36 189.31 40.77Q190.01 41.19 190.94 41.19Q191.87 41.19 192.60 40.77Q193.33 40.36 193.81 39.48Q194.29 38.60 194.52 37.26Q194.75 35.91 194.75 34.08L194.75 32.30Q194.75 30.52 194.48 29.16Q194.21 27.81 193.73 26.94Q193.24 26.07 192.52 25.62Q191.80 25.17 190.89 25.17Q189.99 25.17 189.29 25.62Q188.60 26.07 188.10 26.94Q187.60 27.81 187.34 29.16Q187.08 30.52 187.08 32.30ZM212.62 25.61L212.62 46.39L205.76 46.39L205.76 19.97L212.16 19.97L212.62 25.61M211.60 32.28L209.77 32.32Q209.72 29.35 210.34 26.98Q210.96 24.61 212.12 22.94Q213.28 21.26 214.89 20.37Q216.50 19.48 218.53 19.48Q220.07 19.48 221.35 20.02Q222.63 20.56 223.56 21.73Q224.49 22.90 225 24.83Q225.51 26.76 225.51 29.59L225.51 46.39L218.65 46.39L218.65 29.54Q218.65 27.83 218.31 26.89Q217.97 25.95 217.30 25.57Q216.63 25.20 215.58 25.20Q214.60 25.20 213.84 25.73Q213.09 26.27 212.59 27.23Q212.08 28.20 211.83 29.49Q211.57 30.79 211.60 32.28Z"/></g></g></svg>